<?xml version="1.0" encoding="UTF-8" standalone="no"?>
<!-- Created with Inkscape (http://www.inkscape.org/) -->

<svg
   xmlns:dc="http://purl.org/dc/elements/1.1/"
   xmlns:cc="http://creativecommons.org/ns#"
   xmlns:rdf="http://www.w3.org/1999/02/22-rdf-syntax-ns#"
   xmlns:svg="http://www.w3.org/2000/svg"
   xmlns="http://www.w3.org/2000/svg"
   xmlns:sodipodi="http://sodipodi.sourceforge.net/DTD/sodipodi-0.dtd"
   xmlns:inkscape="http://www.inkscape.org/namespaces/inkscape"
   version="1.1"
   width="300"
   height="207.72354"
   id="svg15656"
   inkscape:version="0.91 r13725"
   sodipodi:docname="European_Commission.svg">
  <sodipodi:namedview
     pagecolor="#ffffff"
     bordercolor="#666666"
     borderopacity="1"
     objecttolerance="10"
     gridtolerance="10"
     guidetolerance="10"
     inkscape:pageopacity="0"
     inkscape:pageshadow="2"
     inkscape:window-width="1790"
     inkscape:window-height="1068"
     id="namedview4304"
     showgrid="false"
     inkscape:zoom="7.7749102"
     inkscape:cx="59.420369"
     inkscape:cy="62.827319"
     inkscape:window-x="0"
     inkscape:window-y="0"
     inkscape:window-maximized="0"
     inkscape:current-layer="svg15656" />
  <defs
     id="defs15658" />
  <metadata
     id="metadata15661">
    <rdf:RDF>
      <cc:Work
         rdf:about="">
        <dc:format>image/svg+xml</dc:format>
        <dc:type
           rdf:resource="http://purl.org/dc/dcmitype/StillImage" />
        <dc:title />
      </cc:Work>
    </rdf:RDF>
  </metadata>
  <path
     d="m 0.00276704,54.576975 c 0,0 88.88512196,-11.502647 91.39283496,-11.910221 3.849311,-0.628343 7.262744,-1.364241 10.449748,-2.241658 7.18915,-1.969941 13.80657,-4.9758 19.66545,-8.938326 5.62113,-3.7644 10.846,-9.244008 16.02559,-15.255726 3.2889,-3.826668 6.74761,-8.8137904 9.97424,-13.6254293 l 0,-2.3265689 c -3.82667,5.6664124 -7.59673,10.5516412 -11.47434,14.8594732 -5.13996,5.72302 -10.529,10.398801 -16.02559,13.908467 -5.67207,3.656845 -12.05174,6.379667 -18.97484,8.106196 -3.10209,0.781184 -6.41929,1.415188 -10.155386,1.935977 -2.456767,0.345079 -4.992783,0.611361 -7.443889,0.866095 -0.97931,0.107781 -83.43381796,8.853415 -83.43381796,8.853415 l 0,5.768306 z"
     id="path5555"
     style="fill:none;fill-opacity:1;fill-rule:nonzero;stroke:#ff0000;stroke-opacity:1"
     inkscape:connector-curvature="0" />
  <path
     d="m 119.20008,39.674481 c -5.56452,3.198324 -11.98947,5.541876 -19.09937,6.957063 -3.034167,0.617022 -6.345707,1.115168 -10.115767,1.522743 -2.219015,0.243185 -4.449351,0.435651 -6.685348,0.628343 -1.20574,0.101894 -2.41148,0.209221 -3.61722,0.317002 -27.239537,2.445445 -54.337555,5.04373 -79.68074011,7.500496 l 0,5.768306 C 25.542946,59.288985 52.83343,56.022731 80.061645,52.943282 c 1.211401,-0.141292 2.422802,-0.27715 3.634203,-0.407574 2.230336,-0.243638 4.466333,-0.492485 6.70233,-0.786844 3.877614,-0.515129 7.268405,-1.109507 10.364832,-1.811441 7.38728,-1.652939 14.05565,-4.256885 19.82396,-7.749569 5.72868,-3.436076 10.78939,-8.253375 16.23503,-14.140557 3.39079,-3.662506 7.16085,-8.836433 10.69316,-13.693358 l 0,-2.117121 c -4.16065,5.638108 -8.10619,10.376157 -12.00645,14.417934 -5.31545,5.507911 -10.80072,9.883672 -16.30863,13.019729"
     id="path5559"
     style="fill:none;fill-opacity:1;fill-rule:nonzero;stroke:#ff0000;stroke-opacity:1"
     inkscape:connector-curvature="0" />
  <path
     d="m 134.75528,38.262146 c -5.423,4.9758 -11.08375,8.88738 -16.82941,11.627184 -5.62113,2.7115 -11.90456,4.613512 -19.223913,5.813592 -3.017181,0.503806 -6.300417,0.911381 -10.030852,1.251026 l -88.67001354,7.279726 0,5.751324 78.82030554,-8.36093 10.195014,-1.069882 c 3.84365,-0.446973 7.194815,-0.945346 10.240299,-1.522743 7.57975,-1.43217 14.08395,-3.566273 19.8749,-6.532507 5.92115,-2.994537 11.83663,-7.975999 17.33888,-13.251819 3.69081,-3.53797 7.24576,-8.106197 11.04413,-12.895193 l 0,-1.918994 c -4.38708,5.456964 -8.57604,9.996887 -12.75934,13.829216"
     id="path5563"
     style="fill:none;fill-opacity:1;fill-rule:nonzero;stroke:#ff0000;stroke-opacity:1"
     inkscape:connector-curvature="0" />
  <path
     d="m 113.31462,68.137329 c -5.1626,2.886983 -9.02324,4.551244 -16.393536,5.321106 -4.455011,0.481164 -9.034559,0.707594 -13.466928,0.928363 -2.139764,0.107328 -4.285189,0.215109 -6.430614,0.350967 -13.393338,0.764201 -26.548925,1.613314 -39.970567,2.48507 l -37.04961924,2.496391 0,5.751324 L 37.426585,82.040135 C 49.51795,80.95327 63.567936,79.702244 77.283937,78.581415 l 9.974244,-0.769862 c 3.894597,-0.299793 7.087261,-0.617022 10.042174,-1.001953 7.585405,-0.97931 14.066965,-2.513374 19.806965,-4.681442 6.18155,-2.309586 12.01212,-5.898503 17.84835,-10.121423 5.2645,-3.804026 12.54989,-11.304521 12.55555,-11.400754 l 0,-2.03221 c -4.76069,4.641816 -7.50049,7.251423 -12.71405,10.687499 -6.23248,4.104045 -16.85205,6.289095 -21.48255,8.876059"
     id="path5567"
     style="fill:none;fill-opacity:1;fill-rule:nonzero;stroke:#ff0000;stroke-opacity:1"
     inkscape:connector-curvature="0" />
  <path
     d="m 115.19965,79.070504 c -5.59282,1.641618 -11.88758,2.751126 -19.246554,3.39079 -2.983216,0.260395 -6.198523,0.458521 -9.832726,0.605701 l -9.917637,0.435651 C 51.561482,84.646118 27.033445,85.925448 0.00335576,87.357618 l 0,5.734342 C 25.827705,91.093714 51.131264,89.152076 76.429163,87.351957 l 9.883673,-0.673629 c 3.821007,-0.25496 6.985367,-0.52645 9.962923,-0.860434 7.540121,-0.843452 13.993381,-2.145425 19.722061,-3.979509 6.3457,-2.009566 12.5329,-4.924854 18.38612,-8.66095 4.31915,-2.751125 8.64397,-6.034361 13.12728,-9.94594 l 0,-0.101894 c -4.94183,4.21726 -9.65158,5.156945 -14.34434,7.987321 -5.75133,3.487023 -11.79701,6.158898 -17.96723,7.953356"
     id="path5571"
     style="fill:none;fill-opacity:1;fill-rule:nonzero;stroke:#ff0000;stroke-opacity:1"
     inkscape:connector-curvature="0" />
  <path
     d="m 114.28487,88.602078 c -5.63244,1.318955 -11.7404,2.162407 -19.218248,2.666214 -2.881322,0.192465 -5.983414,0.334211 -9.759136,0.45286 l -9.821404,0.350967 C 50.737276,93.006143 25.643164,94.081685 -4.069257e-5,95.196853 l 0,5.734337 C 25.479002,99.193344 50.471221,97.500779 75.678548,95.92709 l 9.798761,-0.588718 c 3.84365,-0.220995 6.974046,-0.441538 9.855368,-0.707594 7.613713,-0.701933 13.846203,-1.726529 19.608843,-3.215307 6.46458,-1.664261 12.74801,-4.109705 18.67482,-7.257083 4.58521,-2.428463 9.1591,-5.34941 13.89715,-8.870398 l 0,-2.451105 c -5.12298,3.69647 -10.03652,6.713651 -14.95005,9.170417 -5.82491,2.915287 -11.97249,5.134302 -18.27857,6.594776"
     id="path5575"
     style="fill:none;fill-opacity:1;fill-rule:nonzero;stroke:#ff0000;stroke-opacity:1"
     inkscape:connector-curvature="0" />
  <path
     d="m 113.44595,97.947435 c -5.65509,1.035918 -11.7404,1.698226 -19.161644,2.077495 -2.79075,0.14718 -5.779627,0.24907 -9.685546,0.33965 l -84.59427209,2.28694 0,5.73434 75.01062009,-3.91724 9.71951,-0.49248 c 3.792704,-0.18115 6.894796,-0.36229 9.764797,-0.58306 7.523135,-0.5774 13.710345,-1.40387 19.472985,-2.60961 6.54383,-1.358578 12.89519,-3.339842 18.87295,-5.88718 4.8173,-2.043531 9.64026,-4.534262 14.667,-7.562764 l 0,-2.303926 c -5.36639,3.124735 -10.47239,5.626787 -15.54442,7.636354 -5.89284,2.343551 -12.12533,4.121027 -18.52198,5.281481"
     id="path5579"
     style="fill:none;fill-opacity:1;fill-rule:nonzero;stroke:#ff0000;stroke-opacity:1"
     inkscape:connector-curvature="0" />
  <path
     d="m 112.78192,107.33296 c -10.38182,1.38689 -21.063655,1.54539 -31.400188,1.69823 -2.366194,0.0317 -4.738049,0.0679 -7.104243,0.1191 l -74.27472196,1.33594 0,5.72302 74.40491896,-3.20399 c 2.354873,-0.10733 4.721067,-0.20379 7.087261,-0.29436 10.404462,-0.41889 21.165553,-0.84911 31.688893,-2.51903 6.65704,-1.04724 13.06501,-2.60395 19.04842,-4.61352 4.95316,-1.6586 10.0818,-3.80402 15.27837,-6.340037 l 0,-2.196372 c -5.46262,2.541678 -10.83468,4.658799 -15.99162,6.243809 -5.90983,1.82276 -12.21024,3.187 -18.73709,4.04744"
     id="path5583"
     style="fill:none;fill-opacity:1;fill-rule:nonzero;stroke:#ff0000;stroke-opacity:1"
     inkscape:connector-curvature="0" />
  <path
     d="m 112.19207,116.77731 c -9.72517,0.80383 -19.676771,0.80383 -29.30571,0.80383 -2.994537,0 -5.989075,0 -8.983613,0.0226 -24.607287,0.10778 -49.016448,0.31157 -73.90111211,0.52645 l 0,5.72302 C 23.703202,123.04943 48.8426,122.21164 73.987659,121.46442 c 2.983216,-0.1019 5.966432,-0.17526 8.955309,-0.25451 9.679885,-0.24319 19.688092,-0.49249 29.515162,-1.55671 6.86083,-0.7359 13.1103,-1.8171 19.09371,-3.29455 5.21921,-1.285 10.57995,-2.99454 15.96332,-5.0494 l 0,-2.10579 c -5.55886,1.99258 -11.09507,3.62288 -16.48977,4.81163 -5.9268,1.30764 -12.0857,2.2077 -18.83332,2.76245"
     id="path5587"
     style="fill:none;fill-opacity:1;fill-rule:nonzero;stroke:#ff0000;stroke-opacity:1"
     inkscape:connector-curvature="0" />
  <path
     d="m 111.81624,126.08758 c -4.0531,0.1585 -8.44018,0.23775 -13.415979,0.23775 -1.879369,0 -3.764399,-0.009 -5.638108,-0.0272 l -19.144662,-0.23187 c -13.059354,-0.0965 -26.073422,-0.1191 -38.283663,-0.12997 l -35.32875137,0.0317 0,5.71736 35.41366237,-0.9227 c 12.164955,-0.2998 25.212988,-0.61136 38.238377,-0.84346 l 19.12768,-0.25496 c 5.247517,-0.0793 12.170614,-0.23775 19.184284,-0.69627 6.87216,-0.44697 13.12729,-1.13215 19.12202,-2.08882 5.3947,-0.86043 10.90827,-2.02088 16.42184,-3.43041 l 0,-2.02655 c -5.66641,1.30197 -11.29886,2.34921 -16.76148,3.07945 -5.96077,0.79816 -12.15364,1.31329 -18.93522,1.58501"
     id="path5591"
     style="fill:none;fill-opacity:1;fill-rule:nonzero;stroke:#ff0000;stroke-opacity:1"
     inkscape:connector-curvature="0" />
  <path
     d="M 92.539663,135.08419 73.46293,134.8804 C 49.121698,134.53487 24.808769,134.09355 0.00335576,133.62937 l 0,5.72302 C 23.676619,139.19978 48.753749,139.01818 73.479912,138.74103 l 19.088054,-0.28304 c 6.430614,-0.11321 12.731034,-0.23186 19.099374,-0.44154 13.11596,-0.41889 24.86768,-1.34159 35.84388,-2.79641 l 0,-1.99258 c -11.02148,1.18876 -22.78452,1.81144 -35.91181,1.89635 -6.3457,0.0566 -12.702723,0.0136 -19.059747,-0.0408"
     id="path5595"
     style="fill:none;fill-opacity:1;fill-rule:nonzero;stroke:#ff0000;stroke-opacity:1"
     inkscape:connector-curvature="0" />
  <path
     d="m 147.51294,145.20452 -147.50786337,-3.74175 0,5.72302 147.50786337,0 0,-1.98127 z"
     id="path5599"
     style="fill:none;fill-opacity:1;fill-rule:nonzero;stroke:#ff0000;stroke-opacity:1"
     inkscape:connector-curvature="0" />
  <path
     d="m 134.23055,49.072506 c -5.60414,4.500297 -9.92895,7.698622 -16.78978,10.421444 -5.9721,2.377515 -12.38573,3.345504 -19.716402,4.347457 -4.715406,0.662308 -9.645921,1.635957 -14.355666,1.952959 -1.935978,0.129971 -3.871955,0.254507 -5.802271,0.407574 l -77.56361867,5.655091 0,5.740002 77.87495967,-7.551442 10.098781,-0.945346 c 3.741757,-0.356854 7.070279,-0.764201 10.161049,-1.268008 7.545778,-1.211401 14.049988,-3.056806 19.880558,-5.655091 6.04568,-2.666214 12.16496,-7.036314 17.85401,-11.81965 3.8663,-3.249271 7.59107,-7.336334 11.63851,-11.802667 l 0,-2.054853 c -4.89655,5.060712 -8.96097,9.10815 -13.28013,12.57253"
     id="path5603"
     style="fill:none;fill-opacity:1;fill-rule:nonzero;stroke:#ff0000;stroke-opacity:1"
     inkscape:connector-curvature="0" />
  <path
     d="m 61.313824,202.0458 129.212316,0 0,-57.46229 -129.212316,0 0,57.46229 z"
     id="path5605"
     style="fill:none;fill-opacity:1;fill-rule:nonzero;stroke:#ff0000;stroke-opacity:1"
     inkscape:connector-curvature="0" />
  <path
     d="m 190.54878,60.730801 -129.234956,0 0,86.450999 129.234956,0 0,-86.450999 z"
     id="path5607"
     style="fill:none;fill-opacity:1;fill-rule:nonzero;stroke:#ff0000;stroke-opacity:1"
     inkscape:connector-curvature="0" />
  <path
     d="m 127.33345,73.024822 4.49464,0 -3.62288,2.824715 1.40952,4.477654 -3.61156,-2.756786 -3.61156,2.756786 1.42651,-4.477654 -3.65684,-2.824715 4.48331,0 1.35858,-4.370101 1.33028,4.370101 z"
     id="path5611"
     style="fill:none;fill-opacity:1;fill-rule:nonzero;stroke:#ff0000;stroke-opacity:1"
     inkscape:connector-curvature="0" />
  <path
     d="m 127.492,130.6779 4.50595,0 -3.62854,2.72282 1.40953,4.30217 -3.61156,-2.64923 -3.6059,2.64923 1.42085,-4.30217 -3.66251,-2.72282 4.48898,0 1.35858,-4.20028 1.32462,4.20028 z"
     id="path5615"
     style="fill:none;fill-opacity:1;fill-rule:nonzero;stroke:#ff0000;stroke-opacity:1"
     inkscape:connector-curvature="0" />
  <path
     d="m 141.75311,126.86025 4.50595,0 -3.62854,2.71716 1.40953,4.30783 -3.61156,-2.66056 -3.6059,2.66056 1.42085,-4.30783 -3.66251,-2.71716 4.48898,0 1.35858,-4.20594 1.32462,4.20594 z"
     id="path5619"
     style="fill:none;fill-opacity:1;fill-rule:nonzero;stroke:#ff0000;stroke-opacity:1"
     inkscape:connector-curvature="0" />
  <path
     d="m 141.75311,76.870736 4.50595,0 -3.62854,2.717161 1.40953,4.307832 -3.61156,-2.654893 -3.6059,2.654893 1.42085,-4.307832 -3.66251,-2.717161 4.48898,0 1.35858,-4.200278 1.32462,4.200278 z"
     id="path5623"
     style="fill:none;fill-opacity:1;fill-rule:nonzero;stroke:#ff0000;stroke-opacity:1"
     inkscape:connector-curvature="0" />
  <path
     d="m 152.34152,87.458017 4.49464,0 -3.62289,2.7115 1.40953,4.313493 -3.61156,-2.654892 -3.60024,2.654892 1.42085,-4.313493 -3.6625,-2.7115 4.48331,0 1.35858,-4.205938 1.33028,4.205938 z"
     id="path5627"
     style="fill:none;fill-opacity:1;fill-rule:nonzero;stroke:#ff0000;stroke-opacity:1"
     inkscape:connector-curvature="0" />
  <path
     d="m 152.34152,116.41675 4.49464,0 -3.62289,2.72282 1.40953,4.31349 -3.61156,-2.66055 -3.60024,2.66055 1.42085,-4.31349 -3.6625,-2.72282 4.48331,0 1.35858,-4.20594 1.33028,4.20594 z"
     id="path5631"
     style="fill:none;fill-opacity:1;fill-rule:nonzero;stroke:#ff0000;stroke-opacity:1"
     inkscape:connector-curvature="0" />
  <path
     d="m 156.30862,101.71632 4.50596,0 -3.62855,2.71716 1.40953,4.31349 -3.61156,-2.66055 -3.6059,2.66055 1.42085,-4.31349 -3.6625,-2.71716 4.48331,0 1.36424,-4.200279 1.32462,4.200279 z"
     id="path5635"
     style="fill:none;fill-opacity:1;fill-rule:nonzero;stroke:#ff0000;stroke-opacity:1"
     inkscape:connector-curvature="0" />
  <path
     d="m 112.79383,76.905833 4.49464,0 -3.62288,2.722821 1.40952,4.307832 -3.61155,-2.660553 -3.61156,2.660553 1.42651,-4.307832 -3.65685,-2.722821 4.48331,0 1.35859,-4.200278 1.33027,4.200278 z"
     id="path5639"
     style="fill:none;fill-opacity:1;fill-rule:nonzero;stroke:#ff0000;stroke-opacity:1"
     inkscape:connector-curvature="0" />
  <path
     d="m 102.49919,87.493114 4.50596,0 -3.62854,2.717161 1.40386,4.313492 -3.6059,-2.660553 -3.605896,2.660553 1.415188,-4.313492 -3.656845,-2.717161 4.488976,0 1.358577,-4.200278 1.32462,4.200278 z"
     id="path5643"
     style="fill:none;fill-opacity:1;fill-rule:nonzero;stroke:#ff0000;stroke-opacity:1"
     inkscape:connector-curvature="0" />
  <path
     d="m 98.678182,101.752 4.500298,0 -3.622882,2.71716 1.403862,4.3135 -3.605894,-2.6549 -3.61156,2.6549 1.420849,-4.3135 -3.651185,-2.71716 4.483315,0 1.358581,-4.200274 1.324616,4.200274 z"
     id="path5647"
     style="fill:none;fill-opacity:1;fill-rule:nonzero;stroke:#ff0000;stroke-opacity:1"
     inkscape:connector-curvature="0" />
  <path
     d="m 102.49919,116.45243 4.50596,0 -3.62854,2.72282 1.40386,4.3135 -3.6059,-2.66056 -3.605896,2.66056 1.415188,-4.3135 -3.656845,-2.72282 4.488976,0 1.358577,-4.19461 1.32462,4.19461 z"
     id="path5651"
     style="fill:none;fill-opacity:1;fill-rule:nonzero;stroke:#ff0000;stroke-opacity:1"
     inkscape:connector-curvature="0" />
  <path
     d="m 112.94382,126.89593 4.49464,0 -3.62289,2.71716 1.39821,4.30783 -3.60024,-2.65489 -3.61156,2.65489 1.42651,-4.30783 -3.65684,-2.71716 4.48331,0 1.35858,-4.20594 1.33028,4.20594 z"
     id="path5655"
     style="fill:none;fill-opacity:1;fill-rule:nonzero;stroke:#ff0000;stroke-opacity:1"
     inkscape:connector-curvature="0" />
  <path
     d="m 61.313824,207.72354 129.246286,0 0,-7.37596 -129.246286,0 0,7.37596 z"
     id="path5657"
     style="fill:none;fill-opacity:1;fill-rule:nonzero;stroke:#ff0000;stroke-opacity:1"
     inkscape:connector-curvature="0" />
  <path
     d="m 208.94111,-6.6084158e-6 c 0,0 26.94518,41.9631516084158 31.87569,49.6787566084158 4.92486,7.709943 10.5573,13.812234 30.49447,17.955904 19.93717,4.14367 28.6151,6.10229 28.6151,6.10229 l 0,1.494438 c 0,0 -12.66876,-2.649231 -28.97173,-6.215505 -16.2973,-3.566273 -22.96001,-4.772013 -30.39257,-14.904759 -6.1872,-8.43452 -31.62096,-44.2840598 -31.62096,-44.2840598 l 0,-9.8270648084149 z"
     id="path5661"
     style="fill:none;fill-opacity:1;fill-rule:nonzero;stroke:#ff0000;stroke-opacity:1"
     inkscape:connector-curvature="0" />
  <path
     d="m 208.94111,11.931726 c 0,0 27.84524,39.891316 31.54171,44.782206 3.69647,4.890889 8.67227,12.770655 30.68127,17.423793 5.6834,1.20008 28.83587,5.756985 28.83587,5.756985 l 0,1.262347 c 0,0 -17.59362,-3.39079 -28.83587,-5.756984 -11.24791,-2.366194 -23.0619,-4.522941 -30.60202,-14.033003 -6.84951,-8.638307 -31.67191,-40.497018 -31.67191,-40.497018 l 0.0507,-8.938326 z"
     id="path5665"
     style="fill:none;fill-opacity:1;fill-rule:nonzero;stroke:#ff0000;stroke-opacity:1"
     inkscape:connector-curvature="0" />
  <path
     d="m 208.94111,23.915537 c 0,0 26.23758,33.902241 31.54171,40.683822 5.29846,6.775919 12.60649,12.374403 30.68127,15.844444 10.42145,2.003906 28.75662,5.360731 28.75662,5.360731 l 0,1.262348 c 0,0 -16.06521,-2.994538 -28.75662,-5.281481 -12.6914,-2.286944 -23.16946,-4.500298 -30.68127,-12.929157 -6.58912,-7.398602 -31.59266,-36.477883 -31.59266,-36.477883 l 0.0507,-8.462824 z"
     id="path5669"
     style="fill:none;fill-opacity:1;fill-rule:nonzero;stroke:#ff0000;stroke-opacity:1"
     inkscape:connector-curvature="0" />
  <path
     d="m 208.88908,35.689357 c 0,0 26.5659,30.754863 31.6719,36.240132 7.95336,8.542074 11.80833,11.485665 30.60202,15.057599 7.51748,1.43217 28.75662,5.128641 28.75662,5.128641 l 0,1.335937 c 0,0 -17.58795,-3.153038 -28.75662,-5.12298 C 260,86.358745 250.55221,85.622847 240.48173,75.948622 232.81141,68.583984 208.94002,43.625731 208.94002,43.625731 l -0.0512,-7.936374 z"
     id="path5673"
     style="fill:none;fill-opacity:1;fill-rule:nonzero;stroke:#ff0000;stroke-opacity:1"
     inkscape:connector-curvature="0" />
  <path
     d="m 208.94111,47.93637 c 0,0 24.52804,25.196006 31.62096,32.430446 7.52314,7.670319 17.1634,10.512016 30.52277,12.849907 12.75367,2.230336 28.83587,4.811638 28.83587,4.811638 l 0,1.415188 c 0,0 -15.10289,-2.422801 -28.83587,-4.726727 C 257.61791,92.452521 248.19276,91.195834 240.48282,84.227449 233.5767,77.989301 208.94111,55.346294 208.94111,55.346294 l 0,-7.409924 z"
     id="path5677"
     style="fill:none;fill-opacity:1;fill-rule:nonzero;stroke:#ff0000;stroke-opacity:1"
     inkscape:connector-curvature="0" />
  <path
     d="m 208.94111,59.288985 c 0,0 23.32796,21.233479 31.62096,28.490563 7.63069,6.674026 13.81789,8.751522 30.60202,11.666809 16.78979,2.915283 28.75662,4.726723 28.75662,4.726723 l 0,1.5001 c 0,0 -15.18214,-2.44544 -28.83587,-4.57388 -13.65373,-2.128446 -22.35431,-2.966237 -30.52277,-9.459119 -9.42515,-7.494836 -31.62096,-25.411114 -31.62096,-25.411114 l 0,-6.940082 z"
     id="path5681"
     style="fill:none;fill-opacity:1;fill-rule:nonzero;stroke:#ff0000;stroke-opacity:1"
     inkscape:connector-curvature="0" />
  <path
     d="m 208.88794,71.430754 c 0,0 26.6112,20.684386 31.59266,24.307267 4.98146,3.628542 11.56491,7.857119 30.68127,10.568619 18.95786,2.6832 28.67737,4.01914 28.67737,4.01914 l 0,1.57935 c 0,0 -17.18604,-2.45111 -28.67737,-3.8663 -11.48566,-1.42084 -20.29379,-2.02088 -30.60202,-8.751517 -10.03651,-6.54949 -31.62096,-21.442928 -31.62096,-21.442928 l -0.0512,-6.413631 z"
     id="path5685"
     style="fill:none;fill-opacity:1;fill-rule:nonzero;stroke:#ff0000;stroke-opacity:1"
     inkscape:connector-curvature="0" />
  <path
     d="m 208.88794,83.046616 c 0,0 26.69045,17.423794 31.75116,20.186244 5.06637,2.75678 11.01016,7.25142 30.52277,9.69686 19.51827,2.43979 28.67737,3.54363 28.67737,3.54363 l 0,1.5001 c 0,0 -16.14446,-1.73219 -28.75662,-3.07378 -12.61215,-1.3416 -21.20517,-3.15304 -30.60202,-8.20243 -9.39685,-5.04373 -31.54171,-17.712495 -31.54171,-17.712495 l -0.0512,-5.938129 z"
     id="path5689"
     style="fill:none;fill-opacity:1;fill-rule:nonzero;stroke:#ff0000;stroke-opacity:1"
     inkscape:connector-curvature="0" />
  <path
     d="m 208.94111,94.662479 c 0,0 23.62232,12.595171 31.62096,16.529391 8.91568,4.38709 16.62563,6.49289 30.60202,8.11752 13.72166,1.60765 28.75662,3.1587 28.75662,3.1587 l 0,1.42085 c 0,0 -13.90281,-1.46047 -28.75662,-2.8417 -14.72361,-1.36424 -19.97113,-1.99824 -30.60202,-6.62308 -9.51006,-4.13235 -31.67191,-14.24245 -31.67191,-14.24245 l 0.0507,-5.519231 z"
     id="path5693"
     style="fill:none;fill-opacity:1;fill-rule:nonzero;stroke:#ff0000;stroke-opacity:1"
     inkscape:connector-curvature="0" />
  <path
     d="m 208.94111,106.48838 c 0,0 18.58425,7.80051 31.70021,12.90085 12.90651,5.02109 22.76188,5.44564 30.60202,6.31174 3.45306,0.3795 28.59812,2.91529 28.59812,2.91529 l 0,1.41518 c 0,0 -15.02364,-1.17743 -28.67737,-2.36053 -13.65373,-1.1831 -19.54657,-1.68124 -30.60202,-5.28148 -11.19131,-3.63986 -31.67191,-10.64221 -31.67191,-10.64221 l 0.0507,-5.25884 z"
     id="path5697"
     style="fill:none;fill-opacity:1;fill-rule:nonzero;stroke:#ff0000;stroke-opacity:1"
     inkscape:connector-curvature="0" />
  <path
     d="m 208.94111,118.47219 c 0,0 18.8503,5.72868 31.70021,9.04022 12.8499,3.31154 24.65823,4.65314 30.60202,5.04373 5.94379,0.39625 28.59812,2.20769 28.59812,2.20769 l 0,1.3416 c 0,0 -12.84991,-0.86043 -28.67737,-1.96994 -12.79896,-0.8944 -23.07888,-1.83975 -30.60202,-3.47004 -8.33829,-1.80578 -31.67191,-7.25143 -31.67191,-7.25143 l 0.0507,-4.94183 z"
     id="path5701"
     style="fill:none;fill-opacity:1;fill-rule:nonzero;stroke:#ff0000;stroke-opacity:1"
     inkscape:connector-curvature="0" />
  <path
     d="m 208.88908,130.29917 c 0,0 15.46517,2.60961 31.75115,5.25318 12.21024,1.98693 28.75662,3.23795 30.52277,3.31154 1.76616,0.0793 28.75662,1.89635 28.75662,1.89635 l 0,1.41519 c 0,0 -17.27095,-0.87175 -28.75662,-1.49444 -11.96116,-0.65098 -23.84874,-1.35858 -30.60202,-2.04919 -15.12553,-1.55105 -31.6719,-3.60024 -31.6719,-3.60024 l 0,-4.73239 z"
     id="path5705"
     style="fill:none;fill-opacity:1;fill-rule:nonzero;stroke:#ff0000;stroke-opacity:1"
     inkscape:connector-curvature="0" />
  <path
     d="m 208.94111,142.54338 c 0,0 24.31293,0.8944 31.70021,1.0529 7.38728,0.1585 59.27939,2.20769 59.27939,2.20769 l 0,1.42085 -90.9796,-0.0566 0,-4.62483 z"
     id="path5709"
     style="fill:none;fill-opacity:1;fill-rule:nonzero;stroke:#ff0000;stroke-opacity:1"
     inkscape:connector-curvature="0" />
  <path
     d="m 68.868664,155.7035 c 0,-0.26629 0.124536,-0.40758 0.407574,-0.40758 l 7.500496,0 c 0.243638,0 0.390818,0.14129 0.390818,0.38493 l 0,1.26801 c 0,0.24364 -0.101894,0.36818 -0.407574,0.36818 l -5.564519,0 0,3.504 4.930515,0 c 0.265828,0 0.407574,0.12454 0.407574,0.36772 l 0,1.26235 c 0,0.24364 -0.101894,0.36772 -0.407574,0.36772 l -4.930515,0 0,4.01348 5.706038,0 c 0.243185,0 0.368175,0.12453 0.368175,0.39081 l 0,1.23971 c 0,0.26628 -0.101894,0.36772 -0.390818,0.36772 l -7.60239,0 c -0.283037,0 -0.407574,-0.12453 -0.407574,-0.36772 l 0,-12.75933 z"
     id="path5713"
     style="fill:none;fill-opacity:1;fill-rule:nonzero;stroke:#ff0000;stroke-opacity:1"
     inkscape:connector-curvature="0" />
  <path
     d="m 86.722674,168.83191 -1.449152,0 c -0.305681,0 -0.384931,-0.14129 -0.384931,-0.38493 l 0,-0.634 -0.04076,-0.0226 c -0.798166,0.55476 -2.18505,1.22272 -3.424754,1.22272 -2.751126,0 -3.017181,-1.63029 -3.017181,-3.77006 l 0,-5.99473 c 0,-0.24319 0.101893,-0.40214 0.384931,-0.40214 l 1.488778,0 c 0.266281,0 0.368175,0.14129 0.368175,0.40214 l 0,5.72868 c 0,1.22838 0.243186,1.99824 1.488778,1.99824 0.877416,0 2.219014,-0.65098 2.751125,-0.91704 l 0,-6.80988 c 0,-0.24319 0.07925,-0.40214 0.384931,-0.40214 l 1.449152,0 c 0.283038,0 0.384932,0.14129 0.384932,0.40214 l 0,9.19872 c 0,0.26039 -0.101894,0.38493 -0.384932,0.38493"
     id="path5717"
     style="fill:none;fill-opacity:1;fill-rule:nonzero;stroke:#ff0000;stroke-opacity:1"
     inkscape:connector-curvature="0" />
  <path
     d="m 91.081453,168.44472 c 0,0.24363 -0.101894,0.38493 -0.384931,0.38493 l -1.471796,0 c -0.283037,0 -0.384931,-0.11911 -0.384931,-0.38493 l 0,-9.19307 c 0,-0.26628 0.101894,-0.40757 0.384931,-0.40757 l 1.449153,0 c 0.30568,0 0.407574,0.16394 0.407574,0.40757 l 0,0.8944 0.04076,0.0408 c 0.611362,-0.56607 2.060514,-1.26235 3.017181,-1.44349 0.266282,-0.0625 0.446973,0 0.492485,0.34508 l 0.141293,1.36424 c 0.01811,0.28892 0.04076,0.40757 -0.390366,0.49249 -1.137811,0.22099 -2.586963,0.62834 -3.300218,0.93402 l 0,6.56647 z"
     id="path5721"
     style="fill:none;fill-opacity:1;fill-rule:nonzero;stroke:#ff0000;stroke-opacity:1"
     inkscape:connector-curvature="0" />
  <path
     d="m 99.66202,160.59606 c -1.73219,0 -2.122782,1.10385 -2.122782,3.22097 0,2.16241 0.390366,3.22097 2.100139,3.22097 1.856723,0 2.224673,-1.04158 2.224673,-3.22097 0,-2.16241 -0.34553,-3.22097 -2.20203,-3.22097 m -0.02264,8.40056 c -4.092723,0 -4.358778,-3.0002 -4.358778,-5.32111 0,-1.919 0.424329,-5.03807 4.358778,-5.03807 3.956863,0 4.505963,2.63225 4.505963,5.03807 0,2.32091 -0.28304,5.32111 -4.505963,5.32111"
     id="path5725"
     style="fill:none;fill-opacity:1;fill-rule:nonzero;stroke:#ff0000;stroke-opacity:1"
     inkscape:connector-curvature="0" />
  <path
     d="m 110.23803,160.71892 c -0.8378,0 -2.12279,0.58872 -2.73415,0.91704 l 0,5.09468 c 0.91704,0.26628 1.65294,0.34553 2.34921,0.34553 1.46614,0 1.97561,-0.75288 1.97561,-3.3172 0,-2.59262 -0.50947,-3.03982 -1.59067,-3.03982 m -0.16394,8.29866 c -0.67363,0 -1.60765,-0.12454 -2.54734,-0.45286 l -0.0226,0.0226 0,3.58892 c 0,0.22054 -0.0566,0.40757 -0.38493,0.40757 l -1.44915,0 c -0.32244,0 -0.38494,-0.14129 -0.38494,-0.40757 l 0,-12.9235 c 0,-0.26583 0.1019,-0.40757 0.38494,-0.40757 l 1.44915,0 c 0.28892,0 0.36817,0.1585 0.36817,0.40757 l 0,0.61136 0.0625,0.0408 c 0.73023,-0.50947 2.03787,-1.22272 3.22097,-1.22272 2.66621,0 3.36248,2.01523 3.36248,5.09468 0,3.32286 -0.83779,5.24185 -4.05876,5.24185"
     id="path5729"
     style="fill:none;fill-opacity:1;fill-rule:nonzero;stroke:#ff0000;stroke-opacity:1"
     inkscape:connector-curvature="0" />
  <path
     d="m 117.65529,162.92037 4.03611,0 c 0,-1.24537 -0.32832,-2.44545 -2.01523,-2.44545 -1.51142,0 -1.91899,0.91704 -2.02088,2.44545 m -0.0226,1.5284 c 0.0625,2.06051 0.79817,2.63225 2.46809,2.63225 0.7359,0 1.87371,-0.14718 2.64923,-0.22643 0.36818,-0.0408 0.49249,-0.0408 0.55476,0.34553 l 0.1191,0.67363 c 0.0625,0.30568 0.0226,0.46984 -0.34508,0.634 -0.79817,0.30568 -2.28128,0.50947 -3.28324,0.50947 -3.89459,0 -4.46633,-2.48507 -4.46633,-5.13996 0,-1.9756 0.36817,-5.2362 4.34746,-5.2362 3.64552,0 4.29651,2.3662 4.35878,4.56257 0.0226,0.7359 -0.18115,1.24536 -0.9963,1.24536 l -5.40601,0 z"
     id="path5733"
     style="fill:none;fill-opacity:1;fill-rule:nonzero;stroke:#ff0000;stroke-opacity:1"
     inkscape:connector-curvature="0" />
  <path
     d="m 131.24847,164.28519 -2.48507,0 c -1.01893,0 -1.67558,0.36818 -1.67558,1.71521 0,0.8944 0.30568,1.1831 1.26801,1.1831 0.87741,0 2.11712,-0.51513 2.89264,-0.96233 l 0,-1.93598 z m 0.12454,3.38513 c -1.01894,0.77553 -2.38884,1.32462 -3.75308,1.32462 -2.16241,0 -2.79075,-1.1831 -2.79075,-2.89264 -0.0226,-2.38884 1.26235,-3.40778 3.83233,-3.40778 l 2.6096,0 0,-0.52645 c 0,-1.22272 -0.45286,-1.65294 -2.12278,-1.65294 -0.67363,0 -1.95862,0.1019 -2.77377,0.18115 -0.40757,0.0625 -0.50946,0.0408 -0.56607,-0.24319 l -0.18658,-0.75288 c -0.0408,-0.26628 0.0226,-0.43021 0.46984,-0.61136 0.87742,-0.30568 2.48507,-0.44697 3.4474,-0.44697 3.52665,0 3.9512,1.44349 3.9512,3.73043 l 0,3.93423 c 0,0.83213 0.1019,0.85477 0.7359,0.93402 0.30568,0.0226 0.38493,0.0847 0.38493,0.30568 l 0,0.86043 c 0,0.221 -0.14129,0.36229 -0.48682,0.42433 -0.32832,0.0625 -0.65099,0.1019 -0.95667,0.1019 -0.96233,0 -1.55104,-0.28304 -1.75483,-1.23971 l -0.0408,-0.0226 z"
     id="path5737"
     style="fill:none;fill-opacity:1;fill-rule:nonzero;stroke:#ff0000;stroke-opacity:1"
     inkscape:connector-curvature="0" />
  <path
     d="m 143.49662,168.83191 -1.46614,0 c -0.26628,0 -0.39082,-0.12454 -0.39082,-0.38493 l 0.0226,-5.72868 c 0,-1.20574 -0.28304,-1.99825 -1.46614,-1.99825 -0.81515,0 -2.24166,0.65099 -2.79641,0.91705 l 0,6.80988 c 0,0.24364 -0.10189,0.38493 -0.38493,0.38493 l -1.44915,0 c -0.28304,0 -0.38493,-0.12454 -0.38493,-0.38493 l 0,-9.19872 c 0,-0.2604 0.10189,-0.40214 0.38493,-0.40214 l 1.44915,0 c 0.28304,0 0.38493,0.14129 0.38493,0.40214 l 0,0.61702 c 0.0226,0 0.0453,0.0181 0.0625,0.0181 0.75288,-0.52645 2.17938,-1.22272 3.42475,-1.22272 2.75113,0 3.0002,1.8171 3.0002,3.87196 l 0,5.91548 c 0,0.24364 -0.0851,0.38493 -0.39082,0.38493"
     id="path5741"
     style="fill:none;fill-opacity:1;fill-rule:nonzero;stroke:#ff0000;stroke-opacity:1"
     inkscape:connector-curvature="0" />
  <path
     d="m 74.188638,176.66413 c 0.996292,0 2.649232,0.14129 3.730435,0.58871 0.328324,0.14718 0.446973,0.31157 0.384931,0.63401 l -0.181144,0.83779 c -0.06249,0.24364 -0.163935,0.34553 -0.53211,0.30568 -0.996293,-0.12454 -2.219015,-0.26583 -3.277576,-0.26583 -2.773768,0 -3.181342,2.24166 -3.181342,4.89089 0,2.67188 0.509468,4.77201 3.181342,4.77201 1.177437,0 2.17939,-0.12453 3.277576,-0.26628 0.390818,-0.0408 0.469842,0.0625 0.554753,0.32833 l 0.158501,0.77552 c 0.08468,0.32289 -0.01811,0.50947 -0.345532,0.65099 -0.996292,0.42433 -2.773768,0.61136 -3.77006,0.61136 -4.545584,0 -5.502251,-3.36249 -5.502251,-6.83253 0,-3.48136 0.854773,-7.03065 5.502251,-7.03065"
     id="path5745"
     style="fill:none;fill-opacity:1;fill-rule:nonzero;stroke:#ff0000;stroke-opacity:1"
     inkscape:connector-curvature="0" />
  <path
     d="m 82.931103,182.10692 c -1.73219,0 -2.122782,1.10384 -2.122782,3.22096 0,2.16241 0.390818,3.22097 2.100139,3.22097 1.856726,0 2.224675,-1.04158 2.224675,-3.22097 0,-2.1624 -0.345532,-3.22096 -2.202032,-3.22096 m -0.02264,8.40055 c -4.092724,0 -4.358779,-3.0002 -4.358779,-5.3211 0,-1.919 0.42433,-5.03807 4.358779,-5.03807 3.956865,0 4.505958,2.63225 4.505958,5.03807 0,2.3209 -0.283038,5.3211 -4.505958,5.3211"
     id="path5749"
     style="fill:none;fill-opacity:1;fill-rule:nonzero;stroke:#ff0000;stroke-opacity:1"
     inkscape:connector-curvature="0" />
  <path
     d="m 102.82357,190.34277 -1.46613,0 c -0.28847,0 -0.39082,-0.12454 -0.39082,-0.38493 l 0,-5.79095 c 0,-1.51142 -0.36229,-1.93598 -1.386884,-1.93598 -0.75288,0 -1.975603,0.58872 -2.603946,0.91704 0,0.20379 0.01811,0.57174 0.01811,1.03592 l 0,5.77397 c 0,0.24363 -0.07925,0.38493 -0.384931,0.38493 l -1.488778,0 c -0.265828,0 -0.345532,-0.12454 -0.345532,-0.38493 l 0,-5.89285 c 0,-1.24536 -0.328323,-1.83408 -1.347259,-1.83408 -0.713254,0 -1.856726,0.50947 -2.632249,0.91704 l 0,6.80989 c 0,0.24363 -0.101894,0.38493 -0.384931,0.38493 l -1.466135,0 c -0.266282,0 -0.368175,-0.12454 -0.368175,-0.38493 l 0,-9.19873 c 0,-0.26039 0.101893,-0.40214 0.368175,-0.40214 l 1.443492,0 c 0.30568,0 0.407574,0.15851 0.407574,0.40214 l 0,0.59438 0.02264,0.0226 c 0.792505,-0.55476 1.913334,-1.16612 3.039823,-1.20574 1.177437,0 2.156747,0.24363 2.790751,1.42651 1.018935,-0.75288 2.281283,-1.42651 3.588918,-1.42651 2.68886,0 2.95491,1.75483 2.95491,3.7927 l 0,5.99474 c 0,0.24363 -0.0851,0.38493 -0.36817,0.38493"
     id="path5753"
     style="fill:none;fill-opacity:1;fill-rule:nonzero;stroke:#ff0000;stroke-opacity:1"
     inkscape:connector-curvature="0" />
  <path
     d="m 118.80043,190.34277 -1.46613,0 c -0.28847,0 -0.39082,-0.12454 -0.39082,-0.38493 l 0,-5.79095 c 0,-1.51142 -0.36229,-1.93598 -1.38688,-1.93598 -0.75288,0 -1.97561,0.58872 -2.60395,0.91704 0,0.20379 0.0181,0.57174 0.0181,1.03592 l 0,5.77397 c 0,0.24363 -0.0793,0.38493 -0.38493,0.38493 l -1.48877,0 c -0.26583,0 -0.34554,-0.12454 -0.34554,-0.38493 l 0,-5.89285 c 0,-1.24536 -0.32832,-1.83408 -1.34726,-1.83408 -0.71325,0 -1.85672,0.50947 -2.63225,0.91704 l 0,6.80989 c 0,0.24363 -0.10189,0.38493 -0.38493,0.38493 l -1.46613,0 c -0.26628,0 -0.36818,-0.12454 -0.36818,-0.38493 l 0,-9.19873 c 0,-0.26039 0.1019,-0.40214 0.36818,-0.40214 l 1.44349,0 c 0.30568,0 0.40757,0.15851 0.40757,0.40214 l 0,0.59438 0.0226,0.0226 c 0.7925,-0.55476 1.91333,-1.16612 3.03982,-1.20574 1.17744,0 2.15675,0.24363 2.79075,1.42651 1.01894,-0.75288 2.28128,-1.42651 3.58892,-1.42651 2.68886,0 2.95491,1.75483 2.95491,3.7927 l 0,5.99474 c 0,0.24363 -0.0851,0.38493 -0.36817,0.38493"
     id="path5757"
     style="fill:none;fill-opacity:1;fill-rule:nonzero;stroke:#ff0000;stroke-opacity:1"
     inkscape:connector-curvature="0" />
  <path
     d="m 123.05619,189.95557 c 0,0.221 -0.0793,0.38493 -0.36818,0.38493 l -1.44915,0 c -0.28304,0 -0.40758,-0.1191 -0.40758,-0.38493 l 0,-9.2157 c 0,-0.28304 0.12454,-0.38493 0.40758,-0.38493 l 1.44915,0 c 0.28893,0 0.36818,0.16393 0.36818,0.38493 l 0,9.2157 z m -1.08121,-11.06677 c -1.05856,0 -1.20008,-0.59438 -1.20008,-1.1831 0,-0.65098 0.221,-1.16611 1.20008,-1.16611 1.00196,0 1.20574,0.46984 1.20574,1.16611 0,0.62835 -0.18658,1.1831 -1.20574,1.1831"
     id="path5761"
     style="fill:none;fill-opacity:1;fill-rule:nonzero;stroke:#ff0000;stroke-opacity:1"
     inkscape:connector-curvature="0" />
  <path
     d="m 128.11015,190.50634 c -1.01894,0 -2.38318,-0.14129 -3.1587,-0.44697 -0.40757,-0.16394 -0.49248,-0.35097 -0.43022,-0.67363 l 0.1413,-0.67363 c 0.0625,-0.32833 0.20378,-0.34508 0.53211,-0.30568 0.8944,0.14129 2.20203,0.24364 2.89264,0.24364 1.30763,0 1.83975,-0.34554 1.83975,-1.16046 0,-0.93968 -0.35097,-1.14347 -1.63596,-1.32461 -1.99825,-0.28893 -3.74742,-0.71326 -3.74742,-2.93793 0,-2.01523 1.54539,-3.07379 3.83233,-3.07379 0.83213,0 2.24166,0.1191 3.09643,0.44697 0.34553,0.14129 0.49249,0.30568 0.43022,0.61136 l -0.16394,0.73024 c -0.0625,0.28892 -0.18114,0.32832 -0.54909,0.28892 -0.87742,-0.10189 -2.02089,-0.22643 -2.77377,-0.22643 -1.30197,0 -1.60765,0.36773 -1.60765,1.14348 0,0.7925 0.48682,0.89439 1.73219,1.09818 1.93597,0.28847 3.68515,0.67363 3.68515,3.10209 0,2.38318 -2.01523,3.1587 -4.11537,3.1587"
     id="path5765"
     style="fill:none;fill-opacity:1;fill-rule:nonzero;stroke:#ff0000;stroke-opacity:1"
     inkscape:connector-curvature="0" />
  <path
     d="m 136.64883,190.50634 c -1.01894,0 -2.38318,-0.14129 -3.1587,-0.44697 -0.40758,-0.16394 -0.49249,-0.35097 -0.43022,-0.67363 l 0.14129,-0.67363 c 0.0625,-0.32833 0.20379,-0.34508 0.53211,-0.30568 0.8944,0.14129 2.20204,0.24364 2.89265,0.24364 1.30763,0 1.83974,-0.34554 1.83974,-1.16046 0,-0.93968 -0.35096,-1.14347 -1.63595,-1.32461 -1.99825,-0.28893 -3.74742,-0.71326 -3.74742,-2.93793 0,-2.01523 1.54538,-3.07379 3.83233,-3.07379 0.83213,0 2.24165,0.1191 3.09643,0.44697 0.34553,0.14129 0.49248,0.30568 0.43022,0.61136 l -0.16394,0.73024 c -0.062,0.28892 -0.18114,0.32832 -0.54909,0.28892 -0.87742,-0.10189 -2.02089,-0.22643 -2.77377,-0.22643 -1.30197,0 -1.60765,0.36773 -1.60765,1.14348 0,0.7925 0.48682,0.89439 1.73219,1.09818 1.93597,0.28847 3.68514,0.67363 3.68514,3.10209 0,2.38318 -2.01522,3.1587 -4.11536,3.1587"
     id="path5769"
     style="fill:none;fill-opacity:1;fill-rule:nonzero;stroke:#ff0000;stroke-opacity:1"
     inkscape:connector-curvature="0" />
  <path
     d="m 144.35252,189.95557 c 0,0.221 -0.0793,0.38493 -0.36817,0.38493 l -1.44916,0 c -0.28303,0 -0.40757,-0.1191 -0.40757,-0.38493 l 0,-9.2157 c 0,-0.28304 0.12454,-0.38493 0.40757,-0.38493 l 1.44916,0 c 0.28892,0 0.36817,0.16393 0.36817,0.38493 l 0,9.2157 z m -1.0812,-11.06677 c -1.05856,0 -1.20008,-0.59438 -1.20008,-1.1831 0,-0.65098 0.221,-1.16611 1.20008,-1.16611 1.00195,0 1.20574,0.46984 1.20574,1.16611 0,0.62835 -0.18658,1.1831 -1.20574,1.1831"
     id="path5773"
     style="fill:none;fill-opacity:1;fill-rule:nonzero;stroke:#ff0000;stroke-opacity:1"
     inkscape:connector-curvature="0" />
  <path
     d="m 150.24197,182.10692 c -1.73219,0 -2.11712,1.10384 -2.11712,3.22096 0,2.16241 0.38493,3.22097 2.09448,3.22097 1.85672,0 2.22467,-1.04158 2.22467,-3.22097 0,-2.1624 -0.34553,-3.22096 -2.20203,-3.22096 m -0.0226,8.40055 c -4.09273,0 -4.35878,-3.0002 -4.35878,-5.3211 0,-1.919 0.42433,-5.03807 4.35878,-5.03807 3.95686,0 4.50595,2.63225 4.50595,5.03807 0,2.3209 -0.28303,5.3211 -4.50595,5.3211"
     id="path5777"
     style="fill:none;fill-opacity:1;fill-rule:nonzero;stroke:#ff0000;stroke-opacity:1"
     inkscape:connector-curvature="0" />
  <path
     d="m 164.14197,190.34277 -1.46614,0 c -0.26628,0 -0.39082,-0.12454 -0.39082,-0.38493 l 0.0226,-5.72868 c 0,-1.20575 -0.28304,-1.99825 -1.46614,-1.99825 -0.81515,0 -2.24166,0.65099 -2.79641,0.91704 l 0,6.80989 c 0,0.24363 -0.10189,0.38493 -0.38493,0.38493 l -1.44915,0 c -0.28304,0 -0.38493,-0.12454 -0.38493,-0.38493 l 0,-9.19873 c 0,-0.26039 0.10189,-0.40214 0.38493,-0.40214 l 1.44915,0 c 0.28304,0 0.38493,0.1413 0.38493,0.40214 l 0,0.61703 c 0.0226,0 0.0408,0.0181 0.0625,0.0181 0.75288,-0.52645 2.18505,-1.22272 3.42475,-1.22272 2.75113,0 3.0002,1.8171 3.0002,3.87195 l 0,5.91549 c 0,0.24364 -0.0847,0.38493 -0.39082,0.38493"
     id="path5781"
     style="fill:none;fill-opacity:1;fill-rule:nonzero;stroke:#ff0000;stroke-opacity:1"
     inkscape:connector-curvature="0" />
</svg>
