<?xml version="1.0" encoding="UTF-8" standalone="no"?>
<!-- Created with Inkscape (http://www.inkscape.org/) -->

<svg
   xmlns:dc="http://purl.org/dc/elements/1.1/"
   xmlns:cc="http://creativecommons.org/ns#"
   xmlns:rdf="http://www.w3.org/1999/02/22-rdf-syntax-ns#"
   xmlns:svg="http://www.w3.org/2000/svg"
   xmlns="http://www.w3.org/2000/svg"
   xmlns:sodipodi="http://sodipodi.sourceforge.net/DTD/sodipodi-0.dtd"
   xmlns:inkscape="http://www.inkscape.org/namespaces/inkscape"
   version="1.1"
   width="216"
   height="47"
   viewBox="0 0 216 47"
   id="svg2"
   xml:space="preserve"
   style="overflow:visible"
   inkscape:version="0.91 r13725"
   sodipodi:docname="msnbc.svg"><sodipodi:namedview
     pagecolor="#ffffff"
     bordercolor="#666666"
     borderopacity="1"
     objecttolerance="10"
     gridtolerance="10"
     guidetolerance="10"
     inkscape:pageopacity="0"
     inkscape:pageshadow="2"
     inkscape:window-width="2037"
     inkscape:window-height="1280"
     id="namedview3406"
     showgrid="false"
     inkscape:zoom="5.5231482"
     inkscape:cx="42.442344"
     inkscape:cy="0.032743727"
     inkscape:window-x="0"
     inkscape:window-y="0"
     inkscape:window-maximized="0"
     inkscape:current-layer="svg2" /><defs
     id="defs40" /><path
     d="M 66.343,17.714 C 70.543,13.114 78.343,13.015 82.243,18.214 C 84.943,15.515 88.543,13.614 92.543,14.315 C 97.043,14.515 100.643,18.714 100.643,23.115 C 100.943,29.515 100.812,35.943 100.812,42.378 H 93.954 C 93.954,36.256 94.244,30.215 93.544,24.215 C 92.644,19.215 84.444,19.817 83.944,24.715 C 83.61,30.506 83.547,36.631 83.547,42.381 L 76.662,42.378 C 76.662,36.693 76.797,30.756 76.544,25.115 C 76.344,22.415 73.944,20.315 71.344,20.715 C 68.544,20.816 66.644,23.415 66.544,26.016 C 66.544,31.505 66.432,37.694 66.432,42.377 H 59.514 C 59.514,33.177 59.543,23.914 59.543,14.714 C 61.743,14.714 64.043,14.714 66.343,14.714 C 66.343,15.515 66.343,16.914 66.343,17.714 L 66.343,17.714 z"
     id="path13"
     style="stroke:#000000;stroke-width:1;stroke-miterlimit:6.5;fill:none;stroke-opacity:1;stroke-dasharray:none" /><path
     d="M 107.942,15.814 C 113.142,12.914 119.543,14.713 124.342,17.614 C 123.342,19.314 122.342,21.014 121.342,22.714 C 118.842,21.414 116.242,20.015 113.342,20.015 C 111.742,20.015 110.041,21.214 110.242,22.914 C 113.541,25.914 118.541,25.614 121.94,28.414 C 126.44,31.714 125.041,39.614 119.94,41.614 C 114.14,44.314 107.34,42.114 102.44,38.614 C 103.44,37.014 104.54,35.314 105.64,33.714 C 108.741,35.714 112.44,37.816 116.34,36.816 C 117.94,36.616 119.239,34.016 117.34,33.214 C 113.84,31.016 109.34,31.016 106.14,28.316 C 102.343,24.914 103.642,18.114 107.942,15.814 L 107.942,15.814 z"
     id="path15"
     style="stroke:#000000;stroke-width:1;stroke-miterlimit:6.5;fill:none;stroke-opacity:1;stroke-dasharray:none" /><path
     d="M 133.142,17.814 C 136.142,14.914 140.541,13.213 144.642,14.814 C 148.743,15.914 150.942,20.213 151.041,24.212 C 151.142,30.212 151.201,36.378 151.201,42.375 C 148.803,42.375 146.345,42.375 144.045,42.375 C 144.045,36.409 144.076,30.315 143.742,24.412 C 143.14,20.612 137.742,19.512 135.14,22.012 C 133.742,23.212 133.242,25.212 133.242,27.113 C 133.099,34.171 133.231,39.331 133.231,42.376 C 130.93,42.376 128.609,42.376 126.309,42.376 C 126.309,33.176 126.34,24.013 126.242,14.814 C 128.64,14.814 130.94,14.814 133.342,14.814 C 133.242,15.614 133.142,17.114 133.142,17.814 L 133.142,17.814 z"
     id="path17"
     style="stroke:#000000;stroke-width:1;stroke-miterlimit:6.5;fill:none;stroke-opacity:1;stroke-dasharray:none" /><path
     d="M 189.742,17.614 C 195.641,12.514 205.141,13.414 210.343,19.214 C 208.843,20.714 207.444,22.315 205.944,23.815 C 203.444,21.415 199.745,19.315 196.245,21.015 C 189.944,23.714 190.245,34.315 196.845,36.414 C 200.345,37.814 203.745,35.614 206.245,33.314 C 207.643,34.712 209.044,36.114 210.444,37.514 C 205.643,43.412 196.444,44.712 190.343,40.114 C 183.043,35.015 182.941,23.114 189.742,17.614 L 189.742,17.614 z"
     id="path19"
     style="stroke:#000000;stroke-width:1;stroke-miterlimit:6.5;fill:none;stroke-opacity:1;stroke-dasharray:none" /><path
     d="M 153.843,5.114 C 156.143,5.114 158.543,5.114 160.944,5.114 C 160.745,9.514 160.843,13.814 160.843,18.214 C 164.242,14.614 169.742,13.015 174.242,15.315 C 182.141,18.615 184.141,29.115 180.441,36.115 C 178.242,40.515 173.242,43.315 168.341,42.815 C 165.441,42.713 163.04,40.915 160.741,39.315 C 160.741,40.015 160.747,41.677 160.747,42.377 C 158.446,42.377 156.226,42.377 153.825,42.377 C 153.828,29.977 153.843,17.515 153.843,5.114 L 153.843,5.114 z M 164.642,20.414 C 158.243,23.414 158.243,33.914 164.743,36.714 C 170.243,39.714 176.743,33.914 175.844,28.114 C 176.142,22.515 169.843,17.614 164.642,20.414 L 164.642,20.414 z"
     id="path21"
     style="stroke:#000000;stroke-width:1;stroke-miterlimit:6.5;fill:none;stroke-opacity:1;stroke-dasharray:none" /><path
     d="M 12.412,42.377 C 10.513,42.377 8.783,41.529 7.665,40.051 C 6.536,38.558 6.204,36.588 6.754,34.65 L 6.764,34.614 L 6.777,34.58 C 7.458,32.808 8.745,31.529 10.401,30.984 C 11.147,30.738 11.923,30.655 12.706,30.732 L 12.664,30.7 C 11.301,29.619 10.495,28.166 10.374,26.552 C 10.241,24.769 10.957,22.942 12.243,21.785 L 12.264,21.767 C 13.811,20.465 15.738,19.984 17.55,20.445 C 18.355,20.65 19.093,21.034 19.73,21.566 L 19.715,21.526 C 19.541,20.926 19.454,20.332 19.454,19.752 C 19.454,18.634 19.775,17.57 20.411,16.637 C 21.426,15.148 23.182,14.125 24.782,14.089 C 26.455,13.928 28.214,14.567 29.387,15.769 C 29.866,16.257 30.372,16.958 30.683,17.916 L 30.689,17.879 C 31.03,16.853 31.589,16.124 32.096,15.637 C 33.266,14.512 34.949,13.917 36.564,14.041 C 38.231,14.102 39.965,15.133 40.981,16.672 C 41.95,18.142 42.183,19.864 41.644,21.585 L 41.674,21.561 C 42.403,20.956 43.248,20.56 44.179,20.399 C 46.038,20.078 48.163,20.771 49.315,22.05 C 50.494,23.225 51.113,24.927 50.969,26.608 C 50.87,27.768 50.366,29.413 48.556,30.796 L 48.616,30.779 C 49.394,30.707 50.177,30.8 50.933,31.067 C 52.651,31.671 54.014,33.071 54.58,34.826 C 55.135,36.646 54.793,38.641 53.667,40.161 C 52.622,41.572 51.032,42.381 49.305,42.381 H 12.412 V 42.377 z"
     id="path23"
     style="fill:none;stroke:#000000;stroke-opacity:1;stroke-width:1;stroke-miterlimit:6.5;stroke-dasharray:none" /><path
     d="M 20.831,24.51 L 27.595,39.911 L 13.642,30.397 C 10.142,28.089 10.85,24.132 12.79,22.391 C 15.534,20.084 19.412,20.884 20.831,24.51 L 20.831,24.51 z"
     id="path25"
     style="fill:none;stroke:#000000;stroke-opacity:1;stroke-width:1;stroke-miterlimit:6.5;stroke-dasharray:none" /><path
     d="M 30.103,20.884 L 27.643,38.122 L 20.642,21.732 C 19.128,17.634 22.534,14.95 24.805,14.903 C 27.406,14.62 30.669,16.599 30.103,20.884 L 30.103,20.884 z"
     id="path27"
     style="fill:none;stroke:#000000;stroke-opacity:1;stroke-width:1;stroke-miterlimit:6.5;stroke-dasharray:none" /><path
     d="M 40.745,21.685 L 33.791,38.123 L 31.568,23.288 C 31.379,21.027 32.798,20.98 33.318,20.556 C 33.223,20.227 32.514,20.227 32.514,20.227 H 31.189 C 31.047,16.365 34.075,14.668 36.535,14.858 C 39.184,14.95 42.164,18.011 40.745,21.685 L 40.745,21.685 z"
     id="path29"
     style="fill:none;stroke:#000000;stroke-opacity:1;stroke-width:1;stroke-miterlimit:6.5;stroke-dasharray:none" /><path
     d="M 47.841,30.303 L 33.887,39.865 L 40.462,24.653 C 42.448,19.849 47.084,20.791 48.739,22.628 C 50.537,24.417 51.057,28.043 47.841,30.303 L 47.841,30.303 z"
     id="path31"
     style="fill:none;stroke:#000000;stroke-opacity:1;stroke-width:1;stroke-miterlimit:6.5;stroke-dasharray:none" /><path
     d="M 49.307,41.56 H 33.177 L 46.28,32.469 C 49.497,30.351 52.903,32.281 53.801,35.061 C 54.747,38.169 52.619,41.56 49.307,41.56 L 49.307,41.56 z"
     id="path33"
     style="fill:none;stroke:#000000;stroke-opacity:1;stroke-width:1;stroke-miterlimit:6.5;stroke-dasharray:none" /><path
     d="M 7.54,34.872 C 8.769,31.669 12.175,30.54 15.203,32.47 L 28.306,41.561 H 12.412 C 9.1,41.56 6.499,38.546 7.54,34.872 L 7.54,34.872 z"
     id="path35"
     style="fill:none;stroke:#000000;stroke-opacity:1;stroke-width:1;stroke-miterlimit:6.5;stroke-dasharray:none" /><metadata
     id="metadata3062"><rdf:RDF><cc:Work
         rdf:about=""><dc:title /><dc:format>image/svg+xml</dc:format><dc:type
           rdf:resource="http://purl.org/dc/dcmitype/StillImage" /></cc:Work></rdf:RDF></metadata></svg>